<svg width="933" height="789" viewBox="0 0 933 789" fill="none" xmlns="http://www.w3.org/2000/svg">
<g filter="url(#filter0_d)">
<path d="M1025.02 648.253C1015.8 649.046 1006.52 648.922 997.318 647.883C896.198 636.703 758.498 639.883 646.248 709.433C491.008 805.603 247.718 723.273 140.398 678.483C58.3983 644.273 15.8284 560.483 41.3984 481.833C41.7584 480.723 42.1284 479.613 42.5184 478.503C58.6084 431.763 90.3683 395.183 129.698 375.793C163.978 358.893 214.028 323.603 236.298 255.793C245.498 227.793 258.118 201.453 274.508 178.493C318.398 117.003 410.278 25.4326 568.298 26.0026C596.004 26.1369 623.502 30.7914 649.708 39.7826C707.438 59.4526 759.578 99.4427 799.338 154.883C824.708 190.243 862.728 223.113 917.158 225.793C992.698 229.533 1064.79 264.703 1118.87 327.293C1120.43 329.093 1121.97 330.903 1123.51 332.733C1219.8 447.443 1152.92 637.073 1025.02 648.253Z" fill="url(#paint0_linear)"/>
</g>
<g clip-path="url(#clip0)">
<path d="M668.962 214.701C693.039 214.701 712.558 195.174 712.558 171.085C712.558 146.997 693.039 127.469 668.962 127.469C644.884 127.469 625.366 146.997 625.366 171.085C625.366 195.174 644.884 214.701 668.962 214.701Z" fill="#E6E6E6"/>
<path d="M664.673 146.06C667.436 146.06 669.676 143.819 669.676 141.054C669.676 138.29 667.436 136.049 664.673 136.049C661.91 136.049 659.67 138.29 659.67 141.054C659.67 143.819 661.91 146.06 664.673 146.06Z" fill="#CBCBCB"/>
<path d="M673.249 196.111C676.012 196.111 678.252 193.87 678.252 191.106C678.252 188.341 676.012 186.1 673.249 186.1C670.486 186.1 668.247 188.341 668.247 191.106C668.247 193.87 670.486 196.111 673.249 196.111Z" fill="#CBCBCB"/>
<path d="M692.546 166.795C694.52 166.795 696.12 165.194 696.12 163.22C696.12 161.245 694.52 159.645 692.546 159.645C690.573 159.645 688.973 161.245 688.973 163.22C688.973 165.194 690.573 166.795 692.546 166.795Z" fill="#CBCBCB"/>
<path d="M651.809 186.1C658.124 186.1 663.244 180.978 663.244 174.66C663.244 168.342 658.124 163.22 651.809 163.22C645.494 163.22 640.374 168.342 640.374 174.66C640.374 180.978 645.494 186.1 651.809 186.1Z" fill="#CBCBCB"/>
<path d="M518.877 245.447C522.824 245.447 526.024 242.245 526.024 238.296C526.024 234.348 522.824 231.146 518.877 231.146C514.93 231.146 511.73 234.348 511.73 238.296C511.73 242.245 514.93 245.447 518.877 245.447Z" fill="#6C63FF"/>
<path d="M334.147 562.3C338.094 562.3 341.294 559.099 341.294 555.15C341.294 551.201 338.094 548 334.147 548C330.2 548 327 551.201 327 555.15C327 559.099 330.2 562.3 334.147 562.3Z" fill="#E6E6E6"/>
<path d="M710.413 264.037C714.36 264.037 717.56 260.836 717.56 256.887C717.56 252.938 714.36 249.737 710.413 249.737C706.466 249.737 703.267 252.938 703.267 256.887C703.267 260.836 706.466 264.037 710.413 264.037Z" fill="#6C63FF"/>
<path d="M443.147 167.3C447.094 167.3 450.294 164.099 450.294 160.15C450.294 156.201 447.094 153 443.147 153C439.2 153 436 156.201 436 160.15C436 164.099 439.2 167.3 443.147 167.3Z" fill="#6C63FF"/>
<path d="M665.147 455.3C669.094 455.3 672.294 452.099 672.294 448.15C672.294 444.201 669.094 441 665.147 441C661.2 441 658 444.201 658 448.15C658 452.099 661.2 455.3 665.147 455.3Z" fill="#6C63FF"/>
<path d="M625.366 274.762C627.734 274.762 629.654 272.842 629.654 270.472C629.654 268.103 627.734 266.182 625.366 266.182C622.997 266.182 621.078 268.103 621.078 270.472C621.078 272.842 622.997 274.762 625.366 274.762Z" fill="#E6E6E6"/>
<path d="M295.181 409.9C297.549 409.9 299.469 407.979 299.469 405.61C299.469 403.241 297.549 401.32 295.181 401.32C292.812 401.32 290.893 403.241 290.893 405.61C290.893 407.979 292.812 409.9 295.181 409.9Z" fill="#E6E6E6"/>
<path d="M365.288 265.58C367.656 265.58 369.576 263.659 369.576 261.29C369.576 258.921 367.656 257 365.288 257C362.92 257 361 258.921 361 261.29C361 263.659 362.92 265.58 365.288 265.58Z" fill="#E6E6E6"/>
<path d="M548.894 525.017C551.262 525.017 553.182 523.097 553.182 520.727C553.182 518.358 551.262 516.437 548.894 516.437C546.526 516.437 544.606 518.358 544.606 520.727C544.606 523.097 546.526 525.017 548.894 525.017Z" fill="#E6E6E6"/>
<path d="M717.288 375.58C719.656 375.58 721.576 373.659 721.576 371.29C721.576 368.921 719.656 367 717.288 367C714.92 367 713 368.921 713 371.29C713 373.659 714.92 375.58 717.288 375.58Z" fill="#E6E6E6"/>
<path d="M616.076 397.77L613.936 399.897L611.81 397.756L610.383 399.174L612.509 401.315L610.368 403.442L611.786 404.87L613.926 402.742L616.052 404.884L617.479 403.466L615.353 401.324L617.493 399.198L616.076 397.77Z" fill="#6C63FF"/>
<path d="M332.345 467.842L330.205 469.969L328.079 467.827L326.652 469.245L328.778 471.387L326.638 473.513L328.055 474.941L330.195 472.814L332.321 474.955L333.748 473.537L331.622 471.396L333.763 469.269L332.345 467.842Z" fill="#E6E6E6"/>
<path d="M349.498 343.429L347.357 345.556L345.232 343.415L343.805 344.832L345.931 346.974L343.79 349.101L345.207 350.528L347.347 348.402L349.473 350.543L350.901 349.125L348.774 346.984L350.915 344.857L349.498 343.429Z" fill="#E6E6E6"/>
<path d="M723.279 211.152L721.138 213.278L719.013 211.137L717.586 212.555L719.712 214.696L717.571 216.823L718.989 218.25L721.129 216.124L723.254 218.265L724.682 216.847L722.556 214.706L724.696 212.579L723.279 211.152Z" fill="#E6E6E6"/>
<path d="M554.613 270.498L552.472 272.625L550.346 270.483L548.92 271.901L551.045 274.042L548.905 276.169L550.322 277.597L552.462 275.47L554.589 277.611L556.015 276.193L553.89 274.052L556.03 271.926L554.613 270.498Z" fill="#E6E6E6"/>
<path d="M561.708 153.014L559.567 155.142L557.441 153L556.014 154.418L558.14 156.559L556 158.686L557.417 160.114L559.557 157.987L561.683 160.128L563.11 158.71L560.984 156.569L563.124 154.442L561.708 153.014Z" fill="#E6E6E6"/>
<path opacity="0.8" d="M561.266 400.72L582.981 375.286L604.697 349.853L616.955 335.495C617.633 334.701 616.587 333.461 615.908 334.256L594.193 359.689L572.478 385.123L560.22 399.48C559.541 400.275 560.588 401.514 561.266 400.72Z" fill="url(#paint1_linear)"/>
<path opacity="0.8" d="M221.266 554.72L242.981 529.286L264.697 503.853L276.955 489.495C277.633 488.701 276.587 487.461 275.908 488.256L254.193 513.689L232.478 539.123L220.22 553.48C219.541 554.275 220.588 555.514 221.266 554.72Z" fill="url(#paint2_linear)"/>
<path d="M421.323 327.316H462.06V343.353C462.06 346.116 460.963 348.766 459.01 350.72C457.057 352.674 454.408 353.771 451.646 353.771H431.736C428.974 353.771 426.326 352.674 424.373 350.72C422.42 348.766 421.323 346.116 421.323 343.353V327.316H421.323Z" fill="#2F2E41"/>
<path d="M475.639 540.39C466.362 549.793 457.071 549.856 447.766 540.693L440.619 477.469L435.616 540.825C426.317 548.355 417.652 549.369 409.888 541.105C402.481 486.365 398.455 435.51 404.885 396.672L391.306 341.616L422.037 327.316C428.226 342.631 418.465 350.465 440.537 350.203C462.414 349.943 460.78 341.709 459.916 327.316L488.186 338.194C490.593 339.12 492.557 340.931 493.676 343.256C494.796 345.581 494.987 348.246 494.21 350.707L479.927 395.957C485.425 418.8 479.78 482.343 475.639 540.39Z" fill="#E6E6E6"/>
<path d="M432.758 595.446C432.758 595.446 409.943 597.446 406.886 596.187C406.693 596.107 406.506 596.021 406.323 595.927C401.781 593.607 401.643 587.11 405.888 584.282L414.89 578.286L407.029 536.1L437.403 536.458L432.758 595.446Z" fill="#2F2E41"/>
<path d="M449.91 595.804C449.91 595.804 472.725 597.803 475.781 596.544C475.974 596.465 476.162 596.378 476.345 596.285C480.887 593.965 481.025 587.467 476.78 584.64L467.777 578.644L478.855 536.458H447.051L449.91 595.804Z" fill="#2F2E41"/>
<path d="M396.309 445.293L400.831 463.391C401.387 465.615 401.228 467.959 400.376 470.087C399.525 472.216 398.025 474.022 396.088 475.249C394.524 476.24 392.733 476.816 390.884 476.923C389.036 477.03 387.19 476.664 385.522 475.859C383.854 475.055 382.418 473.838 381.351 472.324C380.283 470.811 379.618 469.05 379.419 467.208L378.442 458.164L374.868 372.203C374.868 365.054 376.987 358.065 380.956 352.119C384.925 346.174 390.567 341.539 397.168 338.801L404.17 335.896L396.309 445.293Z" fill="#E6E6E6"/>
<path d="M509.944 371.489L509.922 371.997L507.035 441.382L506.478 454.789L506.37 457.449L505.391 466.493C505.231 467.98 504.766 469.418 504.027 470.717C503.287 472.017 502.289 473.15 501.093 474.047C499.897 474.944 498.53 475.586 497.076 475.932C495.622 476.278 494.112 476.321 492.641 476.058C491.17 475.796 489.768 475.234 488.523 474.407C487.278 473.579 486.216 472.505 485.404 471.25C484.592 469.994 484.046 468.586 483.801 467.111C483.556 465.636 483.616 464.126 483.979 462.675L488.503 444.578L488.403 443.234L487.803 434.826L480.642 335.181L487.646 338.084C494.243 340.829 499.881 345.465 503.849 351.41C507.817 357.355 509.937 364.341 509.944 371.489Z" fill="#E6E6E6"/>
<path d="M443.518 450.449C417.557 450.449 401.542 441.441 401.316 441.31L402.03 440.072C402.349 440.256 434.467 458.28 481.654 442.657L482.103 444.014C469.669 448.214 456.641 450.386 443.518 450.449Z" fill="#2F2E41"/>
<path d="M417.81 516.37C412.097 503.509 412.068 447.61 412.07 445.237L413.499 445.238C413.499 445.816 413.526 503.204 419.117 515.789L417.81 516.37Z" fill="#2F2E41"/>
<path d="M420.782 516.947C415.693 516.947 412.311 515.863 410.107 514.619C406.093 512.355 405.265 509.269 405.232 509.139L406.617 508.784L405.924 508.962L406.616 508.781C406.645 508.889 407.367 511.458 410.872 513.409C414.732 515.556 422.5 517.159 437.585 512.595L437.998 513.963C430.779 516.148 425.151 516.947 420.782 516.947Z" fill="#2F2E41"/>
<path d="M408.016 334.137L406.588 334.207L412.071 446.198L413.499 446.128L408.016 334.137Z" fill="#2F2E41"/>
<path d="M466.287 516.37L464.98 515.789C470.571 503.204 470.598 445.816 470.598 445.238L472.027 445.237C472.028 447.61 472 503.509 466.287 516.37Z" fill="#2F2E41"/>
<path d="M463.315 516.947C458.946 516.947 453.319 516.148 446.099 513.963L446.512 512.595C461.597 517.158 469.364 515.557 473.225 513.409C476.73 511.458 477.452 508.889 477.481 508.781L478.865 509.139C478.831 509.269 478.003 512.355 473.99 514.619C471.785 515.863 468.403 516.947 463.315 516.947Z" fill="#2F2E41"/>
<path d="M476.075 334.137L470.604 446.129L472.032 446.198L477.503 334.207L476.075 334.137Z" fill="#2F2E41"/>
<path d="M461.974 350.911L451.339 366.641H428.469L420.823 350.911H424.182L429.899 363.782H449.196L458.487 350.911H461.974Z" fill="#6C63FF"/>
<path d="M487.789 358.776L487.974 359.148L487.789 359.491V358.776Z" fill="black"/>
<path d="M511.373 371.489L511.352 371.997L497.794 375.937L489.404 359.148L497.987 343.404C502.17 346.791 505.542 351.071 507.858 355.93C510.175 360.79 511.375 366.106 511.373 371.489Z" fill="#6C63FF"/>
<path d="M373.989 371.489L374.01 371.997L387.568 375.937L395.958 359.148L387.375 343.404C383.192 346.791 379.82 351.071 377.504 355.93C375.187 360.79 373.987 366.106 373.989 371.489Z" fill="#6C63FF"/>
<path d="M441.691 339.114C462.611 339.114 479.57 322.147 479.57 301.218C479.57 280.289 462.611 263.322 441.691 263.322C420.772 263.322 403.813 280.289 403.813 301.218C403.813 322.147 420.772 339.114 441.691 339.114Z" fill="#E6E6E6"/>
<path d="M441.691 334.108C457.085 334.108 469.564 321.624 469.564 306.223C469.564 290.822 457.085 278.337 441.691 278.337C426.297 278.337 413.818 290.822 413.818 306.223C413.818 321.624 426.297 334.108 441.691 334.108Z" fill="#2F2E41"/>
<path d="M507.443 441.382L506.862 454.789L488.532 444.936L488.056 443.234L487.431 434.826L507.443 441.382Z" fill="#6C63FF"/>
<path d="M377.062 441.382L377.672 454.789L396.939 444.936L397.439 443.234L398.096 434.826L377.062 441.382Z" fill="#6C63FF"/>
<path d="M451.719 367.357H428.022L414.901 340.374L414.227 330.669L415.653 330.57L416.308 339.998L428.917 365.926H450.96L467.129 342.014L470.571 331.456L471.931 331.899L468.369 342.732L451.719 367.357Z" fill="#2F2E41"/>
<path opacity="0.8" d="M789.269 288.851L776.736 274.041L764.202 259.231L757.127 250.871C756.735 250.408 757.339 249.686 757.731 250.149L770.264 264.959L782.798 279.769L789.873 288.129C790.265 288.592 789.661 289.314 789.269 288.851Z" fill="url(#paint3_linear)"/>
<path opacity="0.8" d="M527.269 166.851L514.736 152.041L502.202 137.231L495.127 128.871C494.735 128.408 495.339 127.686 495.731 128.149L508.264 142.959L520.798 157.769L527.873 166.129C528.265 166.592 527.661 167.314 527.269 166.851Z" fill="url(#paint4_linear)"/>
<path d="M630.708 525.015L628.567 527.142L626.442 525L625.014 526.418L627.141 528.56L625 530.686L626.417 532.114L628.557 529.987L630.683 532.128L632.11 530.71L629.984 528.569L632.125 526.442L630.708 525.015Z" fill="#E6E6E6"/>
<path d="M262.708 622.015L260.567 624.142L258.442 622L257.014 623.418L259.141 625.56L257 627.686L258.417 629.114L260.557 626.987L262.683 629.128L264.11 627.71L261.984 625.569L264.125 623.442L262.708 622.015Z" fill="#6C63FF"/>
</g>
<defs>
<filter id="filter0_d" x="0" y="0" width="1195.2" height="788.114" filterUnits="userSpaceOnUse" color-interpolation-filters="sRGB">
<feFlood flood-opacity="0" result="BackgroundImageFix"/>
<feColorMatrix in="SourceAlpha" type="matrix" values="0 0 0 0 0 0 0 0 0 0 0 0 0 0 0 0 0 0 127 0"/>
<feOffset dx="-4" dy="4"/>
<feGaussianBlur stdDeviation="15"/>
<feColorMatrix type="matrix" values="0 0 0 0 0 0 0 0 0 0 0 0 0 0 0 0 0 0 0.1 0"/>
<feBlend mode="normal" in2="BackgroundImageFix" result="effect1_dropShadow"/>
<feBlend mode="normal" in="SourceGraphic" in2="effect1_dropShadow" result="shape"/>
</filter>
<linearGradient id="paint0_linear" x1="-38.1013" y1="-249.068" x2="822.399" y2="666.932" gradientUnits="userSpaceOnUse">
<stop stop-color="#6C63FF"/>
<stop offset="1" stop-color="#3F3D56"/>
</linearGradient>
<linearGradient id="paint1_linear" x1="36653" y1="36196.1" x2="41616.3" y2="36196.1" gradientUnits="userSpaceOnUse">
<stop stop-color="white"/>
<stop offset="1" stop-color="white" stop-opacity="0.3"/>
</linearGradient>
<linearGradient id="paint2_linear" x1="36313" y1="36350.1" x2="41276.3" y2="36350.1" gradientUnits="userSpaceOnUse">
<stop stop-color="white"/>
<stop offset="1" stop-color="white" stop-opacity="0.3"/>
</linearGradient>
<linearGradient id="paint3_linear" x1="-20042" y1="21132.7" x2="-22906.8" y2="21132.7" gradientUnits="userSpaceOnUse">
<stop stop-color="white"/>
<stop offset="1" stop-color="white" stop-opacity="0.3"/>
</linearGradient>
<linearGradient id="paint4_linear" x1="-20304" y1="21010.7" x2="-23168.8" y2="21010.7" gradientUnits="userSpaceOnUse">
<stop stop-color="white"/>
<stop offset="1" stop-color="white" stop-opacity="0.3"/>
</linearGradient>
<clipPath id="clip0">
<rect width="562" height="539" fill="white" transform="translate(228 109)"/>
</clipPath>
</defs>
</svg>
