<svg width="115" height="20" viewBox="0 0 115 20" fill="none" xmlns="http://www.w3.org/2000/svg">
<path d="M0.512 19V6.616H4.4V8.584C4.848 7.88 5.384 7.344 6.008 6.976C6.632 6.608 7.32 6.424 8.072 6.424C8.872 6.424 9.576 6.632 10.184 7.048C10.792 7.464 11.248 8.024 11.552 8.728C12.032 7.992 12.616 7.424 13.304 7.024C13.992 6.624 14.76 6.424 15.608 6.424C16.744 6.424 17.672 6.832 18.392 7.648C19.128 8.464 19.496 9.504 19.496 10.768V19H15.608V11.536C15.608 10.912 15.432 10.416 15.08 10.048C14.744 9.664 14.304 9.472 13.76 9.472C13.408 9.472 13.08 9.552 12.776 9.712C12.488 9.856 12.216 10.096 11.96 10.432V19H8.072V11.536C8.072 10.912 7.896 10.416 7.544 10.048C7.208 9.664 6.768 9.472 6.224 9.472C5.872 9.472 5.544 9.552 5.24 9.712C4.936 9.872 4.656 10.112 4.4 10.432V19H0.512ZM23.0741 12.832C23.0741 11.92 23.2341 11.072 23.5541 10.288C23.8901 9.504 24.3461 8.832 24.9221 8.272C25.4981 7.696 26.1781 7.248 26.9621 6.928C27.7621 6.592 28.6181 6.424 29.5301 6.424C30.4421 6.424 31.2981 6.592 32.0981 6.928C32.8981 7.248 33.5861 7.696 34.1621 8.272C34.7381 8.832 35.1861 9.504 35.5061 10.288C35.8421 11.072 36.0101 11.92 36.0101 12.832C36.0101 13.744 35.8421 14.592 35.5061 15.376C35.1701 16.16 34.7141 16.84 34.1381 17.416C33.5621 17.976 32.8741 18.424 32.0741 18.76C31.2901 19.08 30.4421 19.24 29.5301 19.24C28.6181 19.24 27.7621 19.08 26.9621 18.76C26.1781 18.424 25.4981 17.968 24.9221 17.392C24.3461 16.816 23.8901 16.136 23.5541 15.352C23.2341 14.568 23.0741 13.728 23.0741 12.832ZM29.5301 15.952C30.3141 15.952 30.9541 15.664 31.4501 15.088C31.9621 14.496 32.2181 13.744 32.2181 12.832C32.2181 11.92 31.9621 11.168 31.4501 10.576C30.9541 9.968 30.3141 9.664 29.5301 9.664C28.7461 9.664 28.1061 9.968 27.6101 10.576C27.1141 11.168 26.8661 11.92 26.8661 12.832C26.8661 13.744 27.1141 14.496 27.6101 15.088C28.1061 15.664 28.7461 15.952 29.5301 15.952ZM39.2506 12.832C39.2506 11.92 39.4106 11.072 39.7306 10.288C40.0666 9.504 40.5226 8.832 41.0986 8.272C41.6746 7.696 42.3546 7.248 43.1386 6.928C43.9386 6.592 44.7946 6.424 45.7066 6.424C46.6186 6.424 47.4746 6.592 48.2746 6.928C49.0746 7.248 49.7626 7.696 50.3386 8.272C50.9146 8.832 51.3626 9.504 51.6826 10.288C52.0186 11.072 52.1866 11.92 52.1866 12.832C52.1866 13.744 52.0186 14.592 51.6826 15.376C51.3466 16.16 50.8906 16.84 50.3146 17.416C49.7386 17.976 49.0506 18.424 48.2506 18.76C47.4666 19.08 46.6186 19.24 45.7066 19.24C44.7946 19.24 43.9386 19.08 43.1386 18.76C42.3546 18.424 41.6746 17.968 41.0986 17.392C40.5226 16.816 40.0666 16.136 39.7306 15.352C39.4106 14.568 39.2506 13.728 39.2506 12.832ZM45.7066 15.952C46.4906 15.952 47.1306 15.664 47.6266 15.088C48.1386 14.496 48.3946 13.744 48.3946 12.832C48.3946 11.92 48.1386 11.168 47.6266 10.576C47.1306 9.968 46.4906 9.664 45.7066 9.664C44.9226 9.664 44.2826 9.968 43.7866 10.576C43.2906 11.168 43.0426 11.92 43.0426 12.832C43.0426 13.744 43.2906 14.496 43.7866 15.088C44.2826 15.664 44.9226 15.952 45.7066 15.952ZM55.862 19V6.616H59.75V8.632C60.23 7.912 60.798 7.368 61.454 7C62.126 6.616 62.862 6.424 63.662 6.424C64.862 6.424 65.846 6.824 66.614 7.624C67.382 8.408 67.766 9.416 67.766 10.648V19H63.878V11.776C63.878 11.088 63.686 10.536 63.302 10.12C62.934 9.688 62.438 9.472 61.814 9.472C61.398 9.472 61.014 9.56 60.662 9.736C60.326 9.896 60.022 10.152 59.75 10.504V19H55.862ZM75.7859 1.24V19H71.8979V1.84L75.7859 1.24ZM81.956 4.696C81.348 4.696 80.828 4.488 80.396 4.072C79.98 3.64 79.772 3.128 79.772 2.536C79.772 1.944 79.988 1.432 80.42 0.999999C80.852 0.567999 81.364 0.352 81.956 0.352C82.548 0.352 83.06 0.567999 83.492 0.999999C83.94 1.432 84.164 1.944 84.164 2.536C84.164 3.128 83.948 3.64 83.516 4.072C83.1 4.488 82.58 4.696 81.956 4.696ZM83.9 6.616V19H80.012V6.616H83.9ZM88.1261 19V1.84L92.0141 1.24V11.536L96.3341 6.616H100.63L95.5901 12.16L100.99 19H96.1421L92.0141 13.528V19H88.1261ZM114.151 17.248C113.351 17.952 112.543 18.464 111.727 18.784C110.911 19.088 109.983 19.24 108.943 19.24C108.031 19.24 107.175 19.08 106.375 18.76C105.591 18.424 104.903 17.968 104.311 17.392C103.719 16.816 103.255 16.136 102.919 15.352C102.583 14.568 102.415 13.728 102.415 12.832C102.415 11.92 102.575 11.072 102.895 10.288C103.215 9.504 103.647 8.824 104.191 8.248C104.751 7.672 105.415 7.224 106.183 6.904C106.951 6.568 107.775 6.4 108.655 6.4C109.551 6.4 110.367 6.568 111.103 6.904C111.855 7.224 112.495 7.672 113.023 8.248C113.567 8.824 113.991 9.52 114.295 10.336C114.599 11.136 114.751 12.016 114.751 12.976V13.816H106.231C106.407 14.504 106.759 15.064 107.287 15.496C107.815 15.928 108.431 16.144 109.135 16.144C109.647 16.144 110.111 16.056 110.527 15.88C110.959 15.704 111.311 15.448 111.583 15.112L114.151 17.248ZM108.631 9.424C108.023 9.424 107.511 9.616 107.095 10C106.679 10.384 106.391 10.92 106.231 11.608H111.151C110.991 10.936 110.687 10.408 110.239 10.024C109.791 9.624 109.255 9.424 108.631 9.424Z" fill="#6C63FF"/>
</svg>
